# xmcd
#
# Track frame offsets: 
#        182
#        19560
#        39600
#        62767
#        80407
#        99292
#        115182
#        131122
#        148515
#        165395
#
# Disc length: 2432 seconds
#
# Revision: 1
# Processed by: cddbd v1.5.2PL0 Copyright (c) Steve Scherf et al.
# Submitted via: ExactAudioCopy v1.1
#
DISCID=7a097e0a
DTITLE=Dionne Warwick - Heartbreaker
DYEAR=1982
DGENRE=Soul and R&B
TTITLE0=Heartbreaker
TTITLE1=It Makes No Difference
TTITLE2=Yours
TTITLE3=Take the Short Way Home
TTITLE4=Misunderstood
TTITLE5=All the Love in the World
TTITLE6=I Can't See Anything (But You)
TTITLE7=Just One More Night
TTITLE8=You Are My Love
TTITLE9=Our Day Will Come
EXTD=
EXTT0=
EXTT1=
EXTT2=
EXTT3=
EXTT4=
EXTT5=
EXTT6=
EXTT7=
EXTT8=
EXTT9=
PLAYORDER=
